<?xml version="1.0" encoding="UTF-8" standalone="no"?>
<svg
   width="512"
   height="512"
   viewBox="0 0 512 512"
   fill="none"
   version="1.1"
   id="svg10"
   docname="logo.svg"
   xml:space="preserve"
   inkscape:version="1.2.1 (9c6d41e410, 2022-07-14)"
   xmlns:inkscape="http://www.inkscape.org/namespaces/inkscape"
   xmlns:sodipodi="http://sodipodi.sourceforge.net/DTD/sodipodi-0.dtd"
   xmlns="http://www.w3.org/2000/svg"
   xmlns:svg="http://www.w3.org/2000/svg"><defs
     id="defs14" /><sodipodi:namedview
     id="namedview12"
     pagecolor="#ffffff"
     bordercolor="#000000"
     borderopacity="0.25"
     inkscape:showpageshadow="2"
     inkscape:pageopacity="0.0"
     inkscape:pagecheckerboard="0"
     inkscape:deskcolor="#d1d1d1"
     showgrid="false"
     inkscape:zoom="1.6347656"
     inkscape:cx="256.61171"
     inkscape:cy="256.30585"
     inkscape:window-width="1920"
     inkscape:window-height="1017"
     inkscape:window-x="-8"
     inkscape:window-y="-8"
     inkscape:window-maximized="1"
     inkscape:current-layer="svg10" /><path
     style="fill:#000000"
     d="m 190.75877,455.33448 c -48.33766,-5.09202 -88.07229,-30.65706 -107.278734,-69.02258 -9.44316,-18.86302 -13.35638,-36.3945 -13.38215,-59.95288 -0.026,-23.8066 3.89019,-41.01001 13.87707,-60.9598 6.73978,-13.46338 14.50234,-23.95211 25.640164,-34.64487 10.44289,-10.02559 20.80661,-17.08519 35.18942,-23.97049 19.82271,-9.48946 40.12188,-14.20675 65.14119,-15.13802 l 15.03892,-0.55979 26.43315,-66.61351 c 26.21956,-66.075226 26.43339,-66.674129 26.46109,-74.113522 0.0154,-4.125 -0.19707,-8.175 -0.47207,-9 -0.42958,-1.288742 1.60564,-1.5 14.45074,-1.5 h 14.95074 l 43.06412,107.500002 c 25.03485,62.49393 45.53355,112.21873 48.96251,118.77099 3.24411,6.19905 8.95973,15.08655 12.70138,19.75 3.74164,4.66346 6.48068,8.49374 6.08675,8.51174 -4.29858,0.19644 -49.69472,-0.17788 -49.92853,-0.41169 -0.17268,-0.17268 0.36694,-1.9436 1.19916,-3.93538 2.19716,-5.25854 1.86049,-13.26326 -0.96841,-23.02522 -1.98023,-6.83333 -73.22685,-186.746908 -75.25993,-190.048036 -0.44504,-0.72263 -47.25853,114.597576 -47.25853,116.416536 0,0.61547 30.71973,6.64749 38.66468,7.59206 6.37409,0.75782 17.30727,-1.05588 22.57982,-3.74574 2.17212,-1.10813 4.13661,-1.82748 4.36554,-1.59855 0.22892,0.22892 0.29782,16.0663 0.15309,35.19416 l -0.26313,34.77793 -6,-9.24839 c -10.60374,-16.34459 -27.5884,-30.24877 -45.63474,-37.35803 -9.08082,-3.57734 -20.6384,-6.27407 -21.80183,-5.08699 -1.35395,1.38145 -18.60031,45.17721 -21.14093,53.68571 -2.58717,8.66441 -2.83724,17.83777 -0.62721,23.0089 l 1.60266,3.75 h -21.57045 -21.57045 l 4.47676,-5.25 c 11.47903,-13.46174 16.99827,-23.85686 29.65864,-55.86009 l 8.85737,-22.38991 -6.62491,-0.31386 c -16.51767,-0.78252 -38.32761,3.88699 -54.62491,11.69521 -27.56415,13.20629 -46.45247,36.11001 -54.64202,66.25813 -2.924444,10.76576 -3.652944,34.34474 -1.458814,47.21684 5.458444,32.02248 22.095654,60.17273 46.549744,78.76238 32.1581,24.4461 83.83442,29.63256 118.00175,11.84316 22.43898,-11.68297 36.0265,-31.85151 36.0172,-53.46186 -0.004,-8.31648 -2.40334,-18.87653 -5.91486,-26.02812 -3.54352,-7.21679 -11.99585,-16.82603 -18.95146,-21.54546 -2.77748,-1.88452 -5.06157,-3.77071 -5.07575,-4.19152 -0.0142,-0.42081 13.13671,-0.64581 29.22421,-0.5 l 29.25,0.2651 1.21459,7 c 1.35076,7.78479 1.79926,29.69671 0.76081,37.16985 -4.68292,33.70022 -24.07297,60.05417 -55.9754,76.07889 -23.75636,11.9329 -55.29901,17.26574 -84.14805,14.22672 z"
     id="path191" /></svg>
